<svg width="250" height="34" viewBox="0 0 250 34" fill="none" xmlns="http://www.w3.org/2000/svg">
<path d="M27.3379 12.5967L27.1846 12.5186L13.71 5.67285H4.83594V14.6436L18.2803 21.4736L18.3379 21.5029V26.3125L18.1846 26.2344L0.18457 17.0918L0.126953 17.0625V0.892578H13.7598L13.7822 0.904297L27.2803 7.76172L27.3379 7.79102V12.5967Z" fill="#465FFF" stroke="#465FFF" stroke-width="0.210802"/>
<path d="M27.3379 33.1055H13.709L13.6865 33.0938L0.18457 26.2363L0.126953 26.207V21.3975L0.280273 21.4746L13.7588 28.3213H22.6289V19.3486L9.18457 12.5205L9.12695 12.4912V7.68555L9.28027 7.76367L27.2803 16.9053L27.3379 16.9346V33.1055Z" fill="#465FFF" stroke="#465FFF" stroke-width="0.210802"/>
<path d="M39.2324 28.199V5.79904H44.4057V28.199H39.2324Z" fill="#465FFF"/>
<path d="M49.7106 28.199V5.79904H53.9897L67.1783 21.927H65.1026V5.79904H70.212V28.199H65.9648L52.7443 12.071H54.82V28.199H49.7106Z" fill="#465FFF"/>
<path d="M79.6202 28.583C78.1087 28.583 76.7142 28.3057 75.4369 27.751C74.1808 27.175 73.1483 26.3644 72.3393 25.319L75.2133 21.863C75.8307 22.6737 76.48 23.2924 77.1613 23.719C77.8425 24.1244 78.577 24.327 79.3647 24.327C81.4723 24.327 82.5261 23.0897 82.5261 20.615V9.95904H74.6705V5.79904H87.6674V20.327C87.6674 23.1004 86.9862 25.1697 85.6237 26.535C84.2612 27.9004 82.26 28.583 79.6202 28.583Z" fill="#465FFF"/>
<path d="M102.709 28.583C99.5366 28.583 97.0564 27.6977 95.2681 25.927C93.4799 24.1564 92.5857 21.6284 92.5857 18.343V5.79904H97.759V18.151C97.759 20.2844 98.1954 21.8204 99.0682 22.759C99.9411 23.6977 101.165 24.167 102.741 24.167C104.316 24.167 105.54 23.6977 106.413 22.759C107.286 21.8204 107.722 20.2844 107.722 18.151V5.79904H112.832V18.343C112.832 21.6284 111.937 24.1564 110.149 25.927C108.361 27.6977 105.881 28.583 102.709 28.583Z" fill="#465FFF"/>
<path d="M117.944 28.199V5.79904H127.62C129.621 5.79904 131.345 6.1297 132.793 6.79104C134.241 7.43104 135.358 8.35904 136.146 9.57504C136.934 10.791 137.327 12.2417 137.327 13.927C137.327 15.591 136.934 17.031 136.146 18.247C135.358 19.4417 134.241 20.359 132.793 20.999C131.345 21.639 129.621 21.959 127.62 21.959H120.818L123.117 19.687V28.199H117.944ZM132.154 28.199L126.566 20.071H132.09L137.743 28.199H132.154ZM123.117 20.263L120.818 17.831H127.332C128.929 17.831 130.121 17.4897 130.909 16.807C131.696 16.103 132.09 15.143 132.09 13.927C132.09 12.6897 131.696 11.7297 130.909 11.047C130.121 10.3644 128.929 10.023 127.332 10.023H120.818L123.117 7.55904V20.263Z" fill="#465FFF"/>
<path d="M146.671 28.199V19.047L147.852 22.183L138.017 5.79904H143.509L151.046 18.375H147.884L155.452 5.79904H160.53L150.694 22.183L151.844 19.047V28.199H146.671Z" fill="#465FFF"/>
<path d="M169.571 28.583C167.783 28.583 166.069 28.3484 164.43 27.879C162.791 27.3884 161.471 26.759 160.47 25.991L162.227 22.087C163.185 22.7697 164.313 23.335 165.612 23.783C166.932 24.2097 168.262 24.423 169.603 24.423C170.625 24.423 171.445 24.327 172.062 24.135C172.701 23.9217 173.169 23.6337 173.467 23.271C173.765 22.9084 173.914 22.4924 173.914 22.023C173.914 21.4257 173.68 20.9564 173.212 20.615C172.743 20.2524 172.126 19.9644 171.36 19.751C170.593 19.5164 169.742 19.303 168.805 19.111C167.89 18.8977 166.963 18.6417 166.027 18.343C165.111 18.0444 164.27 17.6604 163.504 17.191C162.738 16.7217 162.11 16.103 161.62 15.335C161.152 14.567 160.917 13.5857 160.917 12.391C160.917 11.111 161.258 9.94837 161.939 8.90304C162.642 7.83637 163.685 6.9937 165.069 6.37504C166.474 5.73504 168.23 5.41504 170.338 5.41504C171.743 5.41504 173.127 5.58571 174.489 5.92704C175.852 6.24704 177.054 6.7377 178.098 7.39904L176.501 11.335C175.458 10.7377 174.415 10.3004 173.371 10.023C172.328 9.72437 171.306 9.57504 170.306 9.57504C169.305 9.57504 168.486 9.69237 167.847 9.92704C167.208 10.1617 166.751 10.471 166.474 10.855C166.197 11.2177 166.059 11.6444 166.059 12.135C166.059 12.711 166.293 13.1804 166.761 13.543C167.23 13.8844 167.847 14.1617 168.613 14.375C169.38 14.5884 170.221 14.8017 171.136 15.015C172.073 15.2284 172.999 15.4737 173.914 15.751C174.851 16.0284 175.703 16.4017 176.469 16.871C177.235 17.3404 177.853 17.959 178.321 18.727C178.811 19.495 179.056 20.4657 179.056 21.639C179.056 22.8977 178.704 24.0497 178.002 25.095C177.299 26.1404 176.245 26.983 174.84 27.623C173.457 28.263 171.7 28.583 169.571 28.583Z" fill="#465FFF"/>
<path d="M187.679 28.199V19.047L188.861 22.183L179.025 5.79904H184.518L192.054 18.375H188.893L196.461 5.79904H201.538L191.703 22.183L192.852 19.047V28.199H187.679Z" fill="#465FFF"/>
<path d="M203.516 28.199V5.79904H207.795L220.983 21.927H218.908V5.79904H224.017V28.199H219.77L206.549 12.071H208.625V28.199H203.516Z" fill="#465FFF"/>
<path d="M240.004 28.583C238.279 28.583 236.672 28.3057 235.182 27.751C233.713 27.175 232.435 26.3644 231.35 25.319C230.264 24.2737 229.412 23.047 228.795 21.639C228.199 20.231 227.901 18.6844 227.901 16.999C227.901 15.3137 228.199 13.767 228.795 12.359C229.412 10.951 230.264 9.72437 231.35 8.67904C232.457 7.63371 233.745 6.8337 235.214 6.27904C236.683 5.70304 238.29 5.41504 240.036 5.41504C241.973 5.41504 243.719 5.75637 245.273 6.43904C246.848 7.10037 248.168 8.08171 249.232 9.38304L245.911 12.455C245.145 11.5804 244.293 10.9297 243.357 10.503C242.42 10.055 241.398 9.83104 240.291 9.83104C239.248 9.83104 238.29 10.0017 237.417 10.343C236.544 10.6844 235.788 11.175 235.15 11.815C234.511 12.455 234.011 13.2124 233.649 14.087C233.308 14.9617 233.138 15.9324 233.138 16.999C233.138 18.0657 233.308 19.0364 233.649 19.911C234.011 20.7857 234.511 21.543 235.15 22.183C235.788 22.823 236.544 23.3137 237.417 23.655C238.29 23.9964 239.248 24.167 240.291 24.167C241.398 24.167 242.42 23.9537 243.357 23.527C244.293 23.079 245.145 22.407 245.911 21.511L249.232 24.583C248.168 25.8844 246.848 26.8764 245.273 27.559C243.719 28.2417 241.962 28.583 240.004 28.583Z" fill="#465FFF"/>
</svg>
